<svg id="Capa_1" enable-background="new 0 0 496.716 496.716" height="512" viewBox="0 0 496.716 496.716" width="512" xmlns="http://www.w3.org/2000/svg"><g><g><g><path d="m85.433 333.791c-47.108 0-85.433-38.326-85.433-85.433 0-13.967 3.448-27.827 9.971-40.086 2.595-4.874 8.65-6.723 13.526-4.13 4.875 2.595 6.725 8.65 4.13 13.526-4.989 9.375-7.627 19.989-7.627 30.69 0 36.08 29.353 65.433 65.433 65.433s65.433-29.353 65.433-65.433-29.353-65.433-65.433-65.433c-5.522 0-10-4.478-10-10s4.478-10 10-10c47.107 0 85.433 38.325 85.433 85.433s-38.326 85.433-85.433 85.433z"/></g></g><g><g><path d="m203.259 308.964v-122.746c0-3.827 3.157-7.553 7.932-7.553h37.39c29.837 0 44.755 13.156 44.755 39.467 0 21.058-9.983 33.342-24.738 37.769l24.738 45.888c.629.756.945 1.766.945 3.021 0 9.101-17.262 19.654-23.795 6.988l-26.814-52.121h-15.863v49.287c-.001 10.347-24.55 10.27-24.55 0zm24.549-68.548h20.772c13.47 0 20.206-6.671 20.206-20.017 0-13.47-6.736-20.206-20.206-20.206h-20.772z"/></g><g><path d="m310.896 308.964v-122.556c0-5.236 5.601-7.742 10.764-7.742h67.228c10.474 0 10.176 21.527 0 21.527h-53.441v37.768h28.703c10.161 0 10.409 19.262 0 19.262h-28.703v37.957h53.441c10.228 0 10.423 21.528 0 21.528h-67.228c-5.178 0-10.764-2.512-10.764-7.744z"/></g><g><path d="m408.149 274.596v-52.686c0-14.854 4.027-25.777 12.086-32.764 8.055-6.987 18.568-10.48 31.537-10.48 23.989 0 44.943 12.267 44.943 35.879 0 8.703-2.896 12.086-12.275 12.086-8.058 0-12.15-2.578-12.273-7.742-.947-12.197-6.59-18.695-19.64-18.695-13.22 0-19.829 7.241-19.829 21.717v52.687c0 14.479 6.734 21.717 20.207 21.717 11.743 0 18.533-5.037 19.262-20.206.377-5.16 4.404-7.742 12.086-7.742 9.478 0 12.463 3.479 12.463 12.086 0 24.535-20.665 37.39-45.133 37.39-12.969 0-23.449-3.493-31.441-10.48-7.996-6.99-11.993-17.91-11.993-32.767z"/></g></g><g><g><path d="m45.947 194.088c-5.522 0-10-4.465-10-9.987v-.024c0-5.522 4.478-10 10-10s10 4.478 10 10-4.477 10.011-10 10.011z"/></g></g></g></svg>